<svg width="29" height="29" viewBox="0 0 29 29" fill="none" xmlns="http://www.w3.org/2000/svg">
<path d="M23.5625 15.0311V12.6875H21.75V15.4062C21.7501 15.6466 21.8456 15.8771 22.0155 16.047L24.4688 18.5002V19.9375H4.53125V18.5002L6.98447 16.047C7.15444 15.8771 7.24995 15.6466 7.25 15.4062V11.7812C7.24747 10.5078 7.58105 9.2562 8.21705 8.15291C8.85304 7.04963 9.76892 6.13371 10.8722 5.49768C11.9755 4.86165 13.227 4.52802 14.5005 4.53051C15.774 4.53299 17.0242 4.87149 18.125 5.51181V3.48634C17.2623 3.10438 16.3448 2.86093 15.4062 2.76497V0.90625H13.5938V2.76406C11.3595 2.99147 9.28885 4.03926 7.7823 5.70483C6.27576 7.37039 5.44031 9.53542 5.4375 11.7812V15.0311L2.98428 17.4843C2.81431 17.6542 2.7188 17.8847 2.71875 18.125V20.8438C2.71875 21.0841 2.81423 21.3146 2.98418 21.4846C3.15414 21.6545 3.38465 21.75 3.625 21.75H9.96875V22.6562C9.96875 23.858 10.4461 25.0106 11.2959 25.8603C12.1457 26.7101 13.2982 27.1875 14.5 27.1875C15.7018 27.1875 16.8543 26.7101 17.7041 25.8603C18.5539 25.0106 19.0312 23.858 19.0312 22.6562V21.75H25.375C25.6154 21.75 25.8459 21.6545 26.0158 21.4846C26.1858 21.3146 26.2812 21.0841 26.2812 20.8438V18.125C26.2812 17.8847 26.1857 17.6542 26.0157 17.4843L23.5625 15.0311ZM17.2188 22.6562C17.2187 23.3773 16.9323 24.0688 16.4224 24.5787C15.9126 25.0886 15.2211 25.375 14.5 25.375C13.7789 25.375 13.0874 25.0886 12.5776 24.5787C12.0677 24.0688 11.7812 23.3773 11.7812 22.6562V21.75H17.2188V22.6562Z" fill="#1F1F1F"/>
<path d="M23.5625 10.875C25.5645 10.875 27.1875 9.25203 27.1875 7.25C27.1875 5.24797 25.5645 3.625 23.5625 3.625C21.5605 3.625 19.9375 5.24797 19.9375 7.25C19.9375 9.25203 21.5605 10.875 23.5625 10.875Z" fill="#F30303"/>
</svg>
