<svg width="15" height="15" viewBox="0 0 15 15" fill="none" xmlns="http://www.w3.org/2000/svg">
<path d="M6.09748 12.1943C7.45035 12.194 8.76422 11.7412 9.82991 10.9078L13.1805 14.2582L14.2582 13.1805L10.9076 9.83014C11.7415 8.76441 12.1946 7.4503 12.195 6.09716C12.195 2.73534 9.45948 0 6.09748 0C2.73548 0 0 2.73534 0 6.09716C0 9.45898 2.73548 12.1943 6.09748 12.1943ZM6.09748 1.52429C8.61956 1.52429 10.6706 3.57522 10.6706 6.09716C10.6706 8.61909 8.61956 10.67 6.09748 10.67C3.57541 10.67 1.52437 8.61909 1.52437 6.09716C1.52437 3.57522 3.57541 1.52429 6.09748 1.52429Z" fill="#606060"/>
<path d="M7.17375 5.01982C7.46261 5.30943 7.62191 5.69203 7.62191 6.09749H9.14628C9.14696 5.69693 9.06822 5.30021 8.91464 4.93026C8.76105 4.56031 8.53565 4.22447 8.25148 3.94215C7.09753 2.78979 5.09679 2.78979 3.9436 3.94215L5.01981 5.02134C5.59907 4.44364 6.59753 4.44516 7.17375 5.01982Z" fill="#606060"/>
</svg>
