<svg width="12" height="16" viewBox="0 0 12 16" fill="none" xmlns="http://www.w3.org/2000/svg">
<path d="M0.293762 6.29244C0.386276 6.38514 0.496165 6.45869 0.617138 6.50887C0.738111 6.55905 0.867794 6.58488 0.998762 6.58488C1.12973 6.58488 1.25941 6.55905 1.38039 6.50887C1.50136 6.45869 1.61125 6.38514 1.70376 6.29244L5.58376 2.41244L9.46376 6.29244C9.65074 6.47942 9.90434 6.58446 10.1688 6.58446C10.4332 6.58446 10.6868 6.47942 10.8738 6.29244C11.0607 6.10546 11.1658 5.85187 11.1658 5.58744C11.1658 5.32301 11.0607 5.06942 10.8738 4.88244L6.28376 0.29244C6.19125 0.199737 6.08136 0.126189 5.96039 0.0760078C5.83941 0.0258265 5.70973 -2.86102e-06 5.57876 -2.86102e-06C5.44779 -2.86102e-06 5.31811 0.0258265 5.19714 0.0760078C5.07616 0.126189 4.96628 0.199737 4.87376 0.29244L0.283762 4.88244C-0.0962379 5.26244 -0.0962377 5.90244 0.293762 6.29244Z" fill="#818080"/>
<path d="M10.8723 9.70741C10.7797 9.6147 10.6699 9.54116 10.5489 9.49097C10.4279 9.44079 10.2982 9.41496 10.1673 9.41496C10.0363 9.41496 9.9066 9.44079 9.78563 9.49097C9.66466 9.54116 9.55477 9.6147 9.46225 9.70741L5.58225 13.5874L1.70225 9.70741C1.51528 9.52043 1.26168 9.41539 0.997254 9.41539C0.732828 9.41539 0.47923 9.52043 0.292253 9.70741C0.105275 9.89438 0.00023365 10.148 0.00023365 10.4124C0.00023365 10.6768 0.105275 10.9304 0.292253 11.1174L4.88225 15.7074C4.97477 15.8001 5.08466 15.8737 5.20563 15.9238C5.3266 15.974 5.45628 15.9999 5.58725 15.9999C5.71822 15.9999 5.8479 15.974 5.96888 15.9238C6.08985 15.8737 6.19974 15.8001 6.29225 15.7074L10.8823 11.1174C11.2623 10.7374 11.2623 10.0974 10.8723 9.70741Z" fill="#818080"/>
</svg>
