<svg width="24" height="24" viewBox="0 0 24 24" fill="none" xmlns="http://www.w3.org/2000/svg">
<circle cx="11.5896" cy="11.5896" r="11.5896" fill="#1F1F1F"/>
<path fill-rule="evenodd" clip-rule="evenodd" d="M8.40394 10.9668C8.28567 10.9668 8.17225 11.0138 8.08862 11.0974C8.00499 11.181 7.95801 11.2945 7.95801 11.4127C7.95801 11.531 8.00499 11.6444 8.08862 11.728C8.17225 11.8117 8.28567 11.8587 8.40394 11.8587H13.5705L11.6557 13.7726C11.6142 13.8141 11.5813 13.8633 11.5589 13.9174C11.5364 13.9716 11.5249 14.0297 11.5249 14.0883C11.5249 14.1469 11.5364 14.205 11.5589 14.2592C11.5813 14.3133 11.6142 14.3626 11.6557 14.404C11.6971 14.4455 11.7463 14.4784 11.8005 14.5008C11.8547 14.5233 11.9127 14.5348 11.9714 14.5348C12.03 14.5348 12.0881 14.5233 12.1422 14.5008C12.1964 14.4784 12.2456 14.4455 12.2871 14.404L14.9627 11.7284C15.0042 11.687 15.0372 11.6378 15.0596 11.5836C15.0821 11.5295 15.0937 11.4714 15.0937 11.4127C15.0937 11.3541 15.0821 11.296 15.0596 11.2418C15.0372 11.1876 15.0042 11.1384 14.9627 11.097L12.2871 8.42142C12.2456 8.37996 12.1964 8.34708 12.1422 8.32464C12.0881 8.3022 12.03 8.29065 11.9714 8.29065C11.9127 8.29065 11.8547 8.3022 11.8005 8.32464C11.7463 8.34708 11.6971 8.37996 11.6557 8.42142C11.6142 8.46289 11.5813 8.51211 11.5589 8.56628C11.5364 8.62045 11.5249 8.67851 11.5249 8.73714C11.5249 8.79578 11.5364 8.85384 11.5589 8.90801C11.5813 8.96218 11.6142 9.0114 11.6557 9.05286L13.5705 10.9668H8.40394Z" fill="#FDFEFF"/>
</svg>
