<svg width="88" height="31" viewBox="0 0 88 31" fill="none" xmlns="http://www.w3.org/2000/svg">
<g filter="url(#filter0_d_5_1347)">
<rect x="6.38452" y="4" width="75.5844" height="18.1403" rx="9.07013" fill="#FDFEFF"/>
</g>
<path d="M12.8259 12.8735C12.8259 12.2567 12.968 11.7034 13.2522 11.2136C13.5424 10.7238 13.9325 10.3429 14.4222 10.0708C14.9181 9.79264 15.4593 9.65357 16.0458 9.65357C16.717 9.65357 17.3126 9.81985 17.8326 10.1524C18.3587 10.479 18.7396 10.9446 18.9755 11.5492H17.7328C17.5696 11.2167 17.3428 10.9687 17.0526 10.8055C16.7623 10.6422 16.4267 10.5606 16.0458 10.5606C15.6286 10.5606 15.2567 10.6543 14.9302 10.8418C14.6037 11.0292 14.3467 11.2983 14.1592 11.649C13.9778 11.9997 13.8871 12.4079 13.8871 12.8735C13.8871 13.3391 13.9778 13.7472 14.1592 14.0979C14.3467 14.4486 14.6037 14.7207 14.9302 14.9142C15.2567 15.1017 15.6286 15.1954 16.0458 15.1954C16.4267 15.1954 16.7623 15.1138 17.0526 14.9505C17.3428 14.7873 17.5696 14.5393 17.7328 14.2068H18.9755C18.7396 14.8114 18.3587 15.277 17.8326 15.6036C17.3126 15.9301 16.717 16.0934 16.0458 16.0934C15.4532 16.0934 14.912 15.9573 14.4222 15.6852C13.9325 15.4071 13.5424 15.0231 13.2522 14.5333C12.968 14.0435 12.8259 13.4902 12.8259 12.8735ZM22.3535 16.1206C21.8819 16.1206 21.4556 16.0148 21.0746 15.8031C20.6937 15.5854 20.3944 15.2831 20.1767 14.8961C19.959 14.5031 19.8502 14.0496 19.8502 13.5356C19.8502 13.0277 19.962 12.5772 20.1857 12.1841C20.4095 11.7911 20.7148 11.4888 21.1018 11.2771C21.4888 11.0655 21.9212 10.9597 22.3989 10.9597C22.8766 10.9597 23.3089 11.0655 23.6959 11.2771C24.0829 11.4888 24.3882 11.7911 24.612 12.1841C24.8357 12.5772 24.9476 13.0277 24.9476 13.5356C24.9476 14.0435 24.8327 14.494 24.6029 14.887C24.3731 15.2801 24.0587 15.5854 23.6596 15.8031C23.2666 16.0148 22.8312 16.1206 22.3535 16.1206ZM22.3535 15.2226C22.6196 15.2226 22.8675 15.1591 23.0973 15.0322C23.3331 14.9052 23.5236 14.7147 23.6687 14.4607C23.8138 14.2068 23.8864 13.8984 23.8864 13.5356C23.8864 13.1728 23.8168 12.8674 23.6777 12.6195C23.5387 12.3655 23.3542 12.1751 23.1245 12.0481C22.8947 11.9211 22.6468 11.8576 22.3807 11.8576C22.1147 11.8576 21.8667 11.9211 21.637 12.0481C21.4132 12.1751 21.2349 12.3655 21.1018 12.6195C20.9688 12.8674 20.9023 13.1728 20.9023 13.5356C20.9023 14.0737 21.0383 14.491 21.3104 14.7873C21.5886 15.0775 21.9363 15.2226 22.3535 15.2226ZM32.0195 10.9597C32.4125 10.9597 32.7633 11.0413 33.0716 11.2046C33.3861 11.3678 33.631 11.6097 33.8063 11.9302C33.9877 12.2506 34.0784 12.6376 34.0784 13.0911V16.0389H33.0535V13.2453C33.0535 12.7979 32.9416 12.4562 32.7179 12.2204C32.4942 11.9785 32.1888 11.8576 31.8018 11.8576C31.4148 11.8576 31.1064 11.9785 30.8767 12.2204C30.6529 12.4562 30.5411 12.7979 30.5411 13.2453V16.0389H29.5161V13.2453C29.5161 12.7979 29.4043 12.4562 29.1806 12.2204C28.9568 11.9785 28.6515 11.8576 28.2645 11.8576C27.8775 11.8576 27.5691 11.9785 27.3393 12.2204C27.1156 12.4562 27.0037 12.7979 27.0037 13.2453V16.0389H25.9697V11.0413H27.0037V11.6127C27.173 11.4071 27.3877 11.2469 27.6477 11.132C27.9077 11.0171 28.1859 10.9597 28.4822 10.9597C28.8812 10.9597 29.238 11.0443 29.5524 11.2136C29.8669 11.3829 30.1087 11.6278 30.278 11.9483C30.4292 11.646 30.665 11.4071 30.9855 11.2318C31.306 11.0504 31.6507 10.9597 32.0195 10.9597ZM35.9202 10.3792C35.7328 10.3792 35.5756 10.3157 35.4486 10.1887C35.3216 10.0617 35.2581 9.90451 35.2581 9.71706C35.2581 9.52961 35.3216 9.37239 35.4486 9.24541C35.5756 9.11843 35.7328 9.05494 35.9202 9.05494C36.1016 9.05494 36.2558 9.11843 36.3828 9.24541C36.5098 9.37239 36.5733 9.52961 36.5733 9.71706C36.5733 9.90451 36.5098 10.0617 36.3828 10.1887C36.2558 10.3157 36.1016 10.3792 35.9202 10.3792ZM36.4282 11.0413V16.0389H35.3942V11.0413H36.4282ZM40.3072 10.9597C40.7002 10.9597 41.0509 11.0413 41.3593 11.2046C41.6738 11.3678 41.9187 11.6097 42.094 11.9302C42.2694 12.2506 42.357 12.6376 42.357 13.0911V16.0389H41.3321V13.2453C41.3321 12.7979 41.2203 12.4562 40.9965 12.2204C40.7728 11.9785 40.4674 11.8576 40.0804 11.8576C39.6935 11.8576 39.3851 11.9785 39.1553 12.2204C38.9316 12.4562 38.8197 12.7979 38.8197 13.2453V16.0389H37.7857V11.0413H38.8197V11.6127C38.989 11.4071 39.2037 11.2469 39.4637 11.132C39.7297 11.0171 40.0109 10.9597 40.3072 10.9597ZM45.6895 10.9597C46.0765 10.9597 46.4182 11.0383 46.7145 11.1955C47.0168 11.3467 47.2526 11.5371 47.4219 11.7669V11.0413H48.465V16.1206C48.465 16.5801 48.3683 16.9883 48.1748 17.345C47.9813 17.7078 47.7001 17.992 47.3312 18.1976C46.9684 18.4032 46.5331 18.506 46.0251 18.506C45.3479 18.506 44.7855 18.3458 44.3381 18.0253C43.8906 17.7109 43.6367 17.2815 43.5762 16.7373H44.6011C44.6797 16.9974 44.846 17.206 45.1 17.3632C45.36 17.5264 45.6684 17.6081 46.0251 17.6081C46.4424 17.6081 46.778 17.4811 47.0319 17.2271C47.2919 16.9732 47.4219 16.6043 47.4219 16.1206V15.2861C47.2466 15.5219 47.0077 15.7215 46.7054 15.8847C46.4091 16.042 46.0705 16.1206 45.6895 16.1206C45.2542 16.1206 44.8551 16.0117 44.4923 15.794C44.1355 15.5703 43.8513 15.2619 43.6397 14.8689C43.4341 14.4698 43.3313 14.0193 43.3313 13.5174C43.3313 13.0156 43.4341 12.5711 43.6397 12.1841C43.8513 11.7971 44.1355 11.4978 44.4923 11.2862C44.8551 11.0685 45.2542 10.9597 45.6895 10.9597ZM47.4219 13.5356C47.4219 13.1909 47.3494 12.8916 47.2043 12.6376C47.0652 12.3837 46.8807 12.1902 46.651 12.0572C46.4212 11.9241 46.1733 11.8576 45.9072 11.8576C45.6412 11.8576 45.3932 11.9241 45.1635 12.0572C44.9337 12.1841 44.7462 12.3746 44.6011 12.6286C44.462 12.8765 44.3925 13.1728 44.3925 13.5174C44.3925 13.8621 44.462 14.1644 44.6011 14.4245C44.7462 14.6845 44.9337 14.884 45.1635 15.0231C45.3993 15.1561 45.6472 15.2226 45.9072 15.2226C46.1733 15.2226 46.4212 15.1561 46.651 15.0231C46.8807 14.8901 47.0652 14.6966 47.2043 14.4426C47.3494 14.1826 47.4219 13.8802 47.4219 13.5356ZM54.2563 16.1024C53.833 16.1024 53.4521 16.0299 53.1134 15.8847C52.7748 15.7336 52.5088 15.5219 52.3153 15.2498C52.1218 14.9777 52.025 14.6603 52.025 14.2975H53.1316C53.1558 14.5696 53.2616 14.7933 53.449 14.9687C53.6425 15.144 53.9116 15.2317 54.2563 15.2317C54.613 15.2317 54.8912 15.147 55.0907 14.9777C55.2903 14.8024 55.39 14.5786 55.39 14.3065C55.39 14.0949 55.3266 13.9226 55.1996 13.7895C55.0786 13.6565 54.9244 13.5537 54.737 13.4812C54.5556 13.4086 54.3016 13.33 53.9751 13.2453C53.5639 13.1365 53.2283 13.0277 52.9683 12.9188C52.7144 12.8039 52.4967 12.6286 52.3153 12.3927C52.1339 12.1569 52.0432 11.8425 52.0432 11.4495C52.0432 11.0866 52.1339 10.7692 52.3153 10.4971C52.4967 10.225 52.7506 10.0164 53.0772 9.87125C53.4037 9.72613 53.7816 9.65357 54.2109 9.65357C54.8216 9.65357 55.3205 9.80776 55.7075 10.1161C56.1005 10.4185 56.3182 10.8357 56.3605 11.3678H55.2177C55.1996 11.138 55.0907 10.9415 54.8912 10.7783C54.6916 10.615 54.4286 10.5334 54.1021 10.5334C53.8058 10.5334 53.5639 10.609 53.3765 10.7601C53.189 10.9113 53.0953 11.129 53.0953 11.4132C53.0953 11.6067 53.1527 11.7669 53.2676 11.8939C53.3886 12.0148 53.5397 12.1116 53.7211 12.1841C53.9025 12.2567 54.1505 12.3353 54.4649 12.42C54.8821 12.5348 55.2207 12.6497 55.4807 12.7646C55.7468 12.8795 55.9705 13.0579 56.1519 13.2998C56.3394 13.5356 56.4331 13.853 56.4331 14.2521C56.4331 14.5726 56.3454 14.8749 56.1701 15.1591C56.0008 15.4433 55.7498 15.6731 55.4173 15.8485C55.0907 16.0178 54.7037 16.1024 54.2563 16.1024ZM59.8209 16.1206C59.3493 16.1206 58.923 16.0148 58.5421 15.8031C58.1611 15.5854 57.8618 15.2831 57.6441 14.8961C57.4264 14.5031 57.3176 14.0496 57.3176 13.5356C57.3176 13.0277 57.4295 12.5772 57.6532 12.1841C57.8769 11.7911 58.1823 11.4888 58.5693 11.2771C58.9563 11.0655 59.3886 10.9597 59.8663 10.9597C60.344 10.9597 60.7763 11.0655 61.1633 11.2771C61.5503 11.4888 61.8557 11.7911 62.0794 12.1841C62.3031 12.5772 62.415 13.0277 62.415 13.5356C62.415 14.0435 62.3001 14.494 62.0703 14.887C61.8406 15.2801 61.5261 15.5854 61.127 15.8031C60.734 16.0148 60.2986 16.1206 59.8209 16.1206ZM59.8209 15.2226C60.087 15.2226 60.3349 15.1591 60.5647 15.0322C60.8005 14.9052 60.991 14.7147 61.1361 14.4607C61.2812 14.2068 61.3538 13.8984 61.3538 13.5356C61.3538 13.1728 61.2843 12.8674 61.1452 12.6195C61.0061 12.3655 60.8217 12.1751 60.5919 12.0481C60.3621 11.9211 60.1142 11.8576 59.8482 11.8576C59.5821 11.8576 59.3342 11.9211 59.1044 12.0481C58.8807 12.1751 58.7023 12.3655 58.5693 12.6195C58.4362 12.8674 58.3697 13.1728 58.3697 13.5356C58.3697 14.0737 58.5058 14.491 58.7779 14.7873C59.056 15.0775 59.4037 15.2226 59.8209 15.2226ZM65.6049 16.1206C65.1333 16.1206 64.707 16.0148 64.326 15.8031C63.9451 15.5854 63.6458 15.2831 63.4281 14.8961C63.2104 14.5031 63.1016 14.0496 63.1016 13.5356C63.1016 13.0277 63.2134 12.5772 63.4372 12.1841C63.6609 11.7911 63.9663 11.4888 64.3532 11.2771C64.7402 11.0655 65.1726 10.9597 65.6503 10.9597C66.128 10.9597 66.5603 11.0655 66.9473 11.2771C67.3343 11.4888 67.6397 11.7911 67.8634 12.1841C68.0871 12.5772 68.199 13.0277 68.199 13.5356C68.199 14.0435 68.0841 14.494 67.8543 14.887C67.6245 15.2801 67.3101 15.5854 66.911 15.8031C66.518 16.0148 66.0826 16.1206 65.6049 16.1206ZM65.6049 15.2226C65.871 15.2226 66.1189 15.1591 66.3487 15.0322C66.5845 14.9052 66.775 14.7147 66.9201 14.4607C67.0652 14.2068 67.1378 13.8984 67.1378 13.5356C67.1378 13.1728 67.0682 12.8674 66.9292 12.6195C66.7901 12.3655 66.6057 12.1751 66.3759 12.0481C66.1461 11.9211 65.8982 11.8576 65.6321 11.8576C65.3661 11.8576 65.1182 11.9211 64.8884 12.0481C64.6647 12.1751 64.4863 12.3655 64.3532 12.6195C64.2202 12.8674 64.1537 13.1728 64.1537 13.5356C64.1537 14.0737 64.2898 14.491 64.5619 14.7873C64.84 15.0775 65.1877 15.2226 65.6049 15.2226ZM71.7426 10.9597C72.1357 10.9597 72.4864 11.0413 72.7948 11.2046C73.1092 11.3678 73.3541 11.6097 73.5295 11.9302C73.7048 12.2506 73.7925 12.6376 73.7925 13.0911V16.0389H72.7676V13.2453C72.7676 12.7979 72.6557 12.4562 72.432 12.2204C72.2082 11.9785 71.9029 11.8576 71.5159 11.8576C71.1289 11.8576 70.8205 11.9785 70.5907 12.2204C70.367 12.4562 70.2551 12.7979 70.2551 13.2453V16.0389H69.2211V11.0413H70.2551V11.6127C70.4244 11.4071 70.6391 11.2469 70.8991 11.132C71.1652 11.0171 71.4463 10.9597 71.7426 10.9597Z" fill="#1F1F1F"/>
<defs>
<filter id="filter0_d_5_1347" x="0.605798" y="0.32263" width="87.1419" height="29.6977" filterUnits="userSpaceOnUse" color-interpolation-filters="sRGB">
<feFlood flood-opacity="0" result="BackgroundImageFix"/>
<feColorMatrix in="SourceAlpha" type="matrix" values="0 0 0 0 0 0 0 0 0 0 0 0 0 0 0 0 0 0 127 0" result="hardAlpha"/>
<feOffset dy="2.10135"/>
<feGaussianBlur stdDeviation="2.88936"/>
<feComposite in2="hardAlpha" operator="out"/>
<feColorMatrix type="matrix" values="0 0 0 0 0.162031 0 0 0 0 0.238106 0 0 0 0 0.6375 0 0 0 0.13 0"/>
<feBlend mode="normal" in2="BackgroundImageFix" result="effect1_dropShadow_5_1347"/>
<feBlend mode="normal" in="SourceGraphic" in2="effect1_dropShadow_5_1347" result="shape"/>
</filter>
</defs>
</svg>
