<svg width="47" height="49" viewBox="0 0 47 49" fill="none" xmlns="http://www.w3.org/2000/svg">
<g filter="url(#filter0_d_5_700)">
<circle cx="24.5896" cy="20.5896" r="11.5896" fill="#FBFCFD"/>
</g>
<path fill-rule="evenodd" clip-rule="evenodd" d="M21.4039 19.9669C21.2857 19.9669 21.1722 20.0138 21.0886 20.0975C21.005 20.1811 20.958 20.2945 20.958 20.4128C20.958 20.5311 21.005 20.6445 21.0886 20.7281C21.1722 20.8117 21.2857 20.8587 21.4039 20.8587H26.5705L24.6557 22.7727C24.6142 22.8141 24.5813 22.8633 24.5589 22.9175C24.5364 22.9717 24.5249 23.0297 24.5249 23.0884C24.5249 23.147 24.5364 23.2051 24.5589 23.2592C24.5813 23.3134 24.6142 23.3626 24.6557 23.4041C24.6971 23.4455 24.7463 23.4784 24.8005 23.5009C24.8547 23.5233 24.9127 23.5349 24.9714 23.5349C25.03 23.5349 25.0881 23.5233 25.1422 23.5009C25.1964 23.4784 25.2456 23.4455 25.2871 23.4041L27.9627 20.7285C28.0042 20.6871 28.0372 20.6379 28.0596 20.5837C28.0821 20.5295 28.0937 20.4714 28.0937 20.4128C28.0937 20.3541 28.0821 20.2961 28.0596 20.2419C28.0372 20.1877 28.0042 20.1385 27.9627 20.0971L25.2871 17.4215C25.2456 17.38 25.1964 17.3471 25.1422 17.3247C25.0881 17.3023 25.03 17.2907 24.9714 17.2907C24.9127 17.2907 24.8547 17.3023 24.8005 17.3247C24.7463 17.3471 24.6971 17.38 24.6557 17.4215C24.6142 17.4629 24.5813 17.5122 24.5589 17.5663C24.5364 17.6205 24.5249 17.6786 24.5249 17.7372C24.5249 17.7958 24.5364 17.8539 24.5589 17.9081C24.5813 17.9622 24.6142 18.0115 24.6557 18.0529L26.5705 19.9669H21.4039Z" fill="#1F1F1F"/>
<defs>
<filter id="filter0_d_5_700" x="0.906493" y="0.937662" width="47.3662" height="47.3662" filterUnits="userSpaceOnUse" color-interpolation-filters="sRGB">
<feFlood flood-opacity="0" result="BackgroundImageFix"/>
<feColorMatrix in="SourceAlpha" type="matrix" values="0 0 0 0 0 0 0 0 0 0 0 0 0 0 0 0 0 0 127 0" result="hardAlpha"/>
<feOffset dy="4.03117"/>
<feGaussianBlur stdDeviation="6.04675"/>
<feComposite in2="hardAlpha" operator="out"/>
<feColorMatrix type="matrix" values="0 0 0 0 0.282353 0 0 0 0 0.282353 0 0 0 0 0.282353 0 0 0 0.74 0"/>
<feBlend mode="normal" in2="BackgroundImageFix" result="effect1_dropShadow_5_700"/>
<feBlend mode="normal" in="SourceGraphic" in2="effect1_dropShadow_5_700" result="shape"/>
</filter>
</defs>
</svg>
