<svg width="208" height="64" viewBox="0 0 208 64" fill="none" xmlns="http://www.w3.org/2000/svg">
<path d="M10.9145 13.3609C10.9378 14.3398 11.2174 15.2255 11.7535 16.018C12.3129 16.7871 13.0354 17.5213 13.9211 18.2205C14.8301 18.9197 15.8556 19.6073 16.9977 20.2832C18.1397 20.9358 19.3051 21.635 20.4937 22.3809C21.7057 23.1034 22.8827 23.8958 24.0248 24.7582C25.1669 25.6206 26.1924 26.5995 27.1014 27.6949C28.0104 28.7904 28.7445 30.0257 29.3039 31.4008C29.8633 32.7759 30.1663 34.3375 30.2129 36.0855V36.3652C30.2129 38.2764 29.9798 39.9429 29.5137 41.3646C29.0475 42.7864 28.4299 44.01 27.6607 45.0355C26.8916 46.0611 25.9943 46.9118 24.9687 47.5877C23.9432 48.2403 22.8594 48.7647 21.7174 49.1609C20.5986 49.5572 19.4566 49.8368 18.2912 50C17.1492 50.1632 16.0654 50.2564 15.0398 50.2797H14.6902C12.7091 50.2797 10.9727 50.0816 9.48105 49.6854C7.98939 49.2891 6.70749 48.7647 5.63535 48.1121C4.56322 47.4362 3.66589 46.6671 2.94336 45.8047C2.24414 44.9423 1.68477 44.0566 1.26523 43.1477C0.845703 42.2154 0.542708 41.2947 0.35625 40.3857C0.169792 39.4768 0.0765624 38.626 0.0765624 37.8336C0.0765624 37.0178 0.216406 36.307 0.496094 35.701C0.775781 35.095 1.13704 34.6055 1.57988 34.2326C2.04603 33.8364 2.57044 33.5451 3.15312 33.3586C3.75911 33.1721 4.38841 33.0789 5.04102 33.0789C5.64701 33.0789 6.26465 33.1721 6.89395 33.3586C7.54655 33.5451 8.12923 33.8364 8.64199 34.2326C9.17806 34.6055 9.60924 35.095 9.93555 35.701C10.2852 36.2837 10.4716 36.9712 10.4949 37.7637C10.5415 39.5117 10.9378 40.712 11.6836 41.3646C12.4294 41.9939 13.5016 42.3086 14.9 42.3086C15.5992 42.2853 16.2402 42.2037 16.8229 42.0639C17.4288 41.9007 17.9416 41.6327 18.3611 41.2598C18.7807 40.8635 19.107 40.3508 19.34 39.7215C19.5964 39.0689 19.7246 38.2531 19.7246 37.2742C19.7246 36.0622 19.4449 34.9668 18.8855 33.9879C18.3495 33.009 17.6386 32.1 16.7529 31.2609C15.8673 30.4219 14.8534 29.6294 13.7113 28.8836C12.5693 28.1145 11.4039 27.357 10.2152 26.6111C9.02656 25.842 7.8612 25.0495 6.71914 24.2338C5.60039 23.3947 4.58652 22.4857 3.67754 21.5068C2.76855 20.5279 2.03437 19.4441 1.475 18.2555C0.938932 17.0668 0.659245 15.715 0.635937 14.2V13.6406C0.659245 11.1467 0.985547 9.0724 1.61484 7.41758C2.26745 5.76276 3.21139 4.4459 4.44668 3.46699C5.70527 2.48809 7.24355 1.80052 9.06152 1.4043C10.8795 0.984767 12.9655 0.775001 15.3195 0.775001H16.2285C18.3728 0.775001 20.1908 1.00807 21.6824 1.47422C23.1741 1.94037 24.4094 2.5347 25.3883 3.25723C26.3905 3.97975 27.1713 4.79551 27.7307 5.70449C28.3133 6.61348 28.7445 7.51081 29.0242 8.39649C29.3039 9.28216 29.4787 10.1096 29.5486 10.8787C29.6186 11.6479 29.6535 12.2655 29.6535 12.7316C29.6535 13.4309 29.5137 14.0718 29.234 14.6545C28.9776 15.2139 28.6163 15.6917 28.1502 16.0879C27.7074 16.4841 27.1713 16.7988 26.542 17.0318C25.936 17.2416 25.2717 17.3465 24.5492 17.3465C23.9898 17.3465 23.4305 17.2416 22.8711 17.0318C22.3117 16.7988 21.8106 16.5074 21.3678 16.1578C20.9249 15.8082 20.5637 15.412 20.284 14.9691C20.0043 14.503 19.8645 14.0368 19.8645 13.5707C19.8645 11.6595 19.5148 10.331 18.8156 9.58516C18.1397 8.83932 17.1375 8.46641 15.809 8.46641C15.1797 8.46641 14.562 8.50137 13.9561 8.57129C13.3734 8.64121 12.849 8.83932 12.3828 9.16563C11.94 9.46862 11.5787 9.94642 11.299 10.599C11.0426 11.2516 10.9145 12.1723 10.9145 13.3609ZM65.873 42.0988C65.873 43.0777 65.8148 44.045 65.6982 45.0006C65.605 45.9329 65.3719 46.7719 64.999 47.5178C64.6494 48.2636 64.125 48.8696 63.4258 49.3357C62.7266 49.7786 61.771 50 60.559 50C59.347 50 58.3798 49.7786 57.6572 49.3357C56.958 48.8696 56.4103 48.2636 56.0141 47.5178C55.6411 46.7719 55.3964 45.9329 55.2799 45.0006C55.1633 44.045 55.1051 43.0777 55.1051 42.0988V28.3242C55.1051 27.7182 55.0818 27.1239 55.0352 26.5412C54.9885 25.9352 54.8604 25.3992 54.6506 24.933C54.4408 24.4669 54.1262 24.0939 53.7066 23.8143C53.3104 23.5113 52.751 23.3598 52.0285 23.3598C51.0962 23.3598 50.3387 23.6744 49.7561 24.3037C49.1734 24.9097 48.7072 25.7604 48.3576 26.8559C48.0313 27.928 47.7982 29.2099 47.6584 30.7016C47.5419 32.1699 47.4836 33.7548 47.4836 35.4563V42.0988C47.4836 43.0777 47.4253 44.045 47.3088 45.0006C47.2156 45.9329 46.9825 46.7719 46.6096 47.5178C46.2367 48.2636 45.6889 48.8696 44.9664 49.3357C44.2439 49.7786 43.265 50 42.0297 50C40.8177 50 39.8621 49.7786 39.1629 49.3357C38.4637 48.8696 37.9276 48.2636 37.5547 47.5178C37.2051 46.7719 36.972 45.9329 36.8555 45.0006C36.7622 44.045 36.7156 43.0777 36.7156 42.0988V8.95586C36.7156 7.97695 36.7622 7.02136 36.8555 6.08906C36.972 5.13346 37.2051 4.28275 37.5547 3.53692C37.9276 2.79108 38.4637 2.19675 39.1629 1.75391C39.8621 1.28776 40.8177 1.05469 42.0297 1.05469C43.265 1.05469 44.2439 1.28776 44.9664 1.75391C45.6889 2.19675 46.2367 2.79108 46.6096 3.53692C46.9825 4.28275 47.2156 5.13346 47.3088 6.08906C47.4253 7.02136 47.4836 7.97695 47.4836 8.95586V20.9125C47.6934 20.2366 47.9964 19.549 48.3926 18.8498C48.7888 18.1506 49.3016 17.5213 49.9309 16.9619C50.5602 16.4025 51.2943 15.948 52.1334 15.5984C52.9958 15.2255 53.9863 15.0391 55.1051 15.0391C56.387 15.0391 57.6689 15.2605 58.9508 15.7033C60.256 16.1229 61.4097 16.8221 62.4119 17.801C63.4374 18.7799 64.2648 20.0734 64.8941 21.6816C65.5467 23.2665 65.873 25.2243 65.873 27.5551V42.0988ZM74.2637 22.8703C74.2637 21.8914 74.3103 20.9358 74.4035 20.0035C74.52 19.0712 74.7648 18.2438 75.1377 17.5213C75.5106 16.7755 76.0467 16.1811 76.7459 15.7383C77.4451 15.2721 78.3891 15.0391 79.5777 15.0391C80.7664 15.0391 81.7103 15.2721 82.4096 15.7383C83.1088 16.1811 83.6449 16.7755 84.0178 17.5213C84.3907 18.2438 84.6238 19.0712 84.717 20.0035C84.8335 20.9358 84.8918 21.8914 84.8918 22.8703V42.1688C84.8918 43.1477 84.8335 44.1149 84.717 45.0705C84.6238 46.0028 84.3907 46.8419 84.0178 47.5877C83.6449 48.3102 83.1088 48.8929 82.4096 49.3357C81.7103 49.7786 80.7664 50 79.5777 50C78.3891 50 77.4451 49.7786 76.7459 49.3357C76.0467 48.8929 75.5106 48.3102 75.1377 47.5877C74.7648 46.8419 74.52 46.0028 74.4035 45.0705C74.3103 44.1149 74.2637 43.1477 74.2637 42.1688V22.8703ZM84.9617 6.36875C84.9617 8.16341 84.4956 9.50358 83.5633 10.3893C82.631 11.2516 81.3258 11.6828 79.6477 11.6828C77.9695 11.6828 76.6643 11.2516 75.732 10.3893C74.7997 9.50358 74.3336 8.16341 74.3336 6.36875C74.3336 4.50417 74.7997 3.15234 75.732 2.31328C76.6643 1.47422 77.9695 1.05469 79.6477 1.05469C81.4423 1.05469 82.7708 1.47422 83.6332 2.31328C84.5189 3.15234 84.9617 4.50417 84.9617 6.36875ZM95.3801 22.9402C95.3801 21.9613 95.415 21.0057 95.485 20.0734C95.5549 19.1178 95.7646 18.2671 96.1143 17.5213C96.4639 16.7755 96.9883 16.1811 97.6875 15.7383C98.3867 15.2721 99.3656 15.0391 100.624 15.0391C101.906 15.0391 102.908 15.2605 103.631 15.7033C104.353 16.1229 104.889 16.6473 105.239 17.2766C105.589 17.8826 105.798 18.5235 105.868 19.1994C105.962 19.8753 106.008 20.4464 106.008 20.9125C106.218 20.2366 106.509 19.549 106.882 18.8498C107.278 18.1506 107.78 17.5213 108.386 16.9619C108.992 16.4025 109.714 15.948 110.553 15.5984C111.415 15.2255 112.418 15.0391 113.56 15.0391C114.842 15.0391 116.124 15.2488 117.405 15.6684C118.687 16.0879 119.841 16.7871 120.867 17.766C121.892 18.7449 122.72 20.0268 123.349 21.6117C124.001 23.1733 124.328 25.1078 124.328 27.4152V37.5539C124.328 39.8846 124.001 41.8424 123.349 43.4273C122.72 44.9889 121.892 46.2592 120.867 47.2381C119.841 48.1937 118.687 48.8813 117.405 49.3008C116.124 49.7203 114.842 49.9301 113.56 49.9301C112.418 49.9301 111.415 49.7553 110.553 49.4057C109.714 49.0561 108.992 48.6016 108.386 48.0422C107.78 47.4828 107.278 46.8535 106.882 46.1543C106.509 45.4551 106.218 44.7559 106.008 44.0566V56.0133C106.008 57.0388 105.95 58.0294 105.833 58.985C105.74 59.9406 105.507 60.7796 105.134 61.5021C104.785 62.248 104.248 62.8423 103.526 63.2852C102.803 63.7513 101.836 63.9844 100.624 63.9844C99.4588 63.9844 98.5266 63.7513 97.8273 63.2852C97.1281 62.8423 96.5921 62.248 96.2191 61.5021C95.8695 60.7796 95.6365 59.9406 95.5199 58.985C95.4267 58.0294 95.3801 57.0388 95.3801 56.0133V22.9402ZM113.56 28.3242C113.56 27.6949 113.536 27.0773 113.49 26.4713C113.443 25.8653 113.315 25.3176 113.105 24.8281C112.896 24.3387 112.581 23.9541 112.161 23.6744C111.765 23.3714 111.206 23.2199 110.483 23.2199C109.574 23.2199 108.828 23.4297 108.246 23.8492C107.686 24.2454 107.243 24.8747 106.917 25.7371C106.591 26.5762 106.358 27.6483 106.218 28.9535C106.101 30.2587 106.032 31.797 106.008 33.5684C106.008 34.3142 106.066 35.1649 106.183 36.1205C106.323 37.0528 106.556 37.9385 106.882 38.7775C107.209 39.6166 107.663 40.3275 108.246 40.9102C108.828 41.4695 109.574 41.7492 110.483 41.7492C111.206 41.7492 111.765 41.6094 112.161 41.3297C112.581 41.0267 112.896 40.6421 113.105 40.176C113.315 39.7098 113.443 39.1854 113.49 38.6027C113.536 37.9967 113.56 37.3908 113.56 36.7848V28.3242ZM133.278 22.8703C133.278 21.8914 133.324 20.9358 133.418 20.0035C133.534 19.0712 133.779 18.2438 134.152 17.5213C134.525 16.7755 135.061 16.1811 135.76 15.7383C136.459 15.2721 137.403 15.0391 138.592 15.0391C139.78 15.0391 140.724 15.2721 141.424 15.7383C142.123 16.1811 142.659 16.7755 143.032 17.5213C143.405 18.2438 143.638 19.0712 143.731 20.0035C143.848 20.9358 143.906 21.8914 143.906 22.8703V42.1688C143.906 43.1477 143.848 44.1149 143.731 45.0705C143.638 46.0028 143.405 46.8419 143.032 47.5877C142.659 48.3102 142.123 48.8929 141.424 49.3357C140.724 49.7786 139.78 50 138.592 50C137.403 50 136.459 49.7786 135.76 49.3357C135.061 48.8929 134.525 48.3102 134.152 47.5877C133.779 46.8419 133.534 46.0028 133.418 45.0705C133.324 44.1149 133.278 43.1477 133.278 42.1688V22.8703ZM143.976 6.36875C143.976 8.16341 143.51 9.50358 142.577 10.3893C141.645 11.2516 140.34 11.6828 138.662 11.6828C136.984 11.6828 135.678 11.2516 134.746 10.3893C133.814 9.50358 133.348 8.16341 133.348 6.36875C133.348 4.50417 133.814 3.15234 134.746 2.31328C135.678 1.47422 136.984 1.05469 138.662 1.05469C140.456 1.05469 141.785 1.47422 142.647 2.31328C143.533 3.15234 143.976 4.50417 143.976 6.36875ZM169.497 15.0391C170.08 15.0391 170.674 15.074 171.28 15.1439C171.886 15.2139 172.422 15.3887 172.888 15.6684C173.378 15.948 173.774 16.3792 174.077 16.9619C174.38 17.5446 174.532 18.3487 174.532 19.3742C174.532 20.3298 174.38 21.0873 174.077 21.6467C173.774 22.1827 173.378 22.6023 172.888 22.9053C172.422 23.185 171.886 23.3714 171.28 23.4646C170.674 23.5346 170.08 23.5695 169.497 23.5695H167.4V42.0988C167.4 43.1243 167.341 44.1149 167.225 45.0705C167.132 46.0028 166.887 46.8419 166.491 47.5877C166.118 48.3102 165.558 48.8929 164.812 49.3357C164.09 49.7786 163.111 50 161.876 50C160.687 50 159.743 49.7786 159.044 49.3357C158.368 48.8929 157.855 48.3102 157.506 47.5877C157.156 46.8419 156.935 46.0028 156.841 45.0705C156.748 44.1149 156.702 43.1243 156.702 42.0988V23.5695H154.744C154.091 23.5695 153.462 23.5346 152.856 23.4646C152.273 23.3714 151.749 23.185 151.283 22.9053C150.84 22.6023 150.479 22.1827 150.199 21.6467C149.919 21.0873 149.779 20.3298 149.779 19.3742C149.779 18.3487 149.919 17.5446 150.199 16.9619C150.479 16.3792 150.84 15.948 151.283 15.6684C151.749 15.3887 152.273 15.2139 152.856 15.1439C153.462 15.074 154.091 15.0391 154.744 15.0391H156.702C156.702 12.988 156.795 11.1001 156.981 9.37539C157.168 7.65065 157.622 6.18229 158.345 4.97031C159.067 3.73503 160.139 2.77943 161.561 2.10352C162.983 1.4043 164.929 1.05469 167.4 1.05469C168.448 1.05469 169.439 1.14792 170.371 1.33438C171.304 1.52083 172.119 1.81218 172.819 2.2084C173.518 2.60462 174.065 3.12904 174.462 3.78164C174.881 4.41094 175.091 5.18008 175.091 6.08906C175.091 6.92813 174.94 7.62734 174.637 8.18672C174.357 8.74609 174.007 9.20059 173.588 9.5502C173.168 9.89981 172.702 10.1445 172.189 10.2844C171.7 10.4242 171.245 10.4941 170.826 10.4941C170.476 10.4941 170.15 10.4126 169.847 10.2494C169.544 10.0863 169.194 10.0047 168.798 10.0047C168.472 10.0047 168.215 10.1096 168.029 10.3193C167.866 10.5291 167.726 10.8088 167.609 11.1584C167.516 11.508 167.458 11.8926 167.435 12.3121C167.411 12.7316 167.4 13.1512 167.4 13.5707V15.0391H169.497ZM184.041 63.9844C181.384 63.9844 179.496 63.5998 178.377 62.8307C177.259 62.0848 176.699 60.9777 176.699 59.5094C176.699 58.7868 176.792 58.1809 176.979 57.6914C177.189 57.202 177.468 56.8057 177.818 56.5027C178.168 56.1997 178.564 55.9783 179.007 55.8385C179.473 55.7219 179.962 55.6637 180.475 55.6637C180.825 55.6637 181.151 55.6753 181.454 55.6986C181.757 55.7219 182.013 55.7336 182.223 55.7336C182.666 55.7336 183.085 55.4656 183.482 54.9295C183.901 54.4167 184.297 53.7641 184.67 52.9717C185.067 52.1792 185.463 51.3285 185.859 50.4195C186.255 49.5105 186.651 48.6715 187.048 47.9023L186.488 46.5039C185.812 44.8025 185.101 43.0195 184.356 41.1549C183.61 39.267 182.864 37.3674 182.118 35.4563C181.396 33.5217 180.673 31.5989 179.951 29.6877C179.251 27.7765 178.61 25.9236 178.028 24.1289C177.771 23.3831 177.55 22.6489 177.363 21.9264C177.2 21.2038 177.119 20.493 177.119 19.7938C177.119 19.1178 177.259 18.4885 177.538 17.9059C177.818 17.3232 178.203 16.8221 178.692 16.4025C179.181 15.983 179.741 15.6567 180.37 15.4236C181.023 15.1673 181.71 15.0391 182.433 15.0391C183.085 15.0391 183.68 15.1789 184.216 15.4586C184.775 15.7383 185.265 16.1229 185.684 16.6123C186.127 17.1018 186.512 17.6611 186.838 18.2904C187.164 18.9197 187.444 19.584 187.677 20.2832L192.362 35.0367L196.837 20.2832C197.046 19.6306 197.315 18.978 197.641 18.3254C197.967 17.6728 198.352 17.1018 198.795 16.6123C199.237 16.0995 199.738 15.6917 200.298 15.3887C200.857 15.0624 201.475 14.8992 202.151 14.8992C202.827 14.8992 203.468 15.0274 204.074 15.2838C204.703 15.5402 205.239 15.9014 205.682 16.3676C206.148 16.8104 206.509 17.3465 206.766 17.9758C207.045 18.6051 207.185 19.281 207.185 20.0035C207.185 20.7027 207.092 21.402 206.905 22.1012C206.742 22.7771 206.533 23.453 206.276 24.1289L197.886 46.3641C197.396 47.6227 196.86 48.9279 196.277 50.2797C195.718 51.6548 195.1 52.995 194.424 54.3002C193.749 55.6054 193.026 56.8407 192.257 58.0061C191.488 59.1714 190.672 60.1969 189.81 61.0826C188.947 61.9683 188.027 62.6675 187.048 63.1803C186.092 63.7163 185.09 63.9844 184.041 63.9844Z" fill="#46A5BA"/>
</svg>
