<svg width="116" height="55" viewBox="0 0 116 55" fill="none" xmlns="http://www.w3.org/2000/svg">
<g filter="url(#filter0_d_5_1364)">
<rect x="11" y="7" width="94" height="34" rx="17" fill="#46A5BA"/>
</g>
<path d="M32.3933 18.9116V20.0796H30.0697V27.6408H28.6379V20.0796H26.3017V18.9116H32.3933ZM36.4528 27.7538C35.7997 27.7538 35.2093 27.6073 34.6818 27.3142C34.1543 27.0128 33.7398 26.5941 33.4384 26.0582C33.1369 25.514 32.9862 24.886 32.9862 24.1742C32.9862 23.4709 33.1411 22.847 33.4509 22.3028C33.7608 21.7585 34.1836 21.3398 34.7195 21.0468C35.2554 20.7537 35.8541 20.6072 36.5156 20.6072C37.1771 20.6072 37.7758 20.7537 38.3117 21.0468C38.8476 21.3398 39.2704 21.7585 39.5802 22.3028C39.8901 22.847 40.045 23.4709 40.045 24.1742C40.045 24.8776 39.8859 25.5014 39.5677 26.0457C39.2495 26.5899 38.8141 27.0128 38.2614 27.3142C37.7172 27.6073 37.1143 27.7538 36.4528 27.7538ZM36.4528 26.5104C36.8212 26.5104 37.1645 26.4225 37.4827 26.2466C37.8093 26.0708 38.073 25.807 38.274 25.4553C38.475 25.1037 38.5754 24.6766 38.5754 24.1742C38.5754 23.6718 38.4791 23.249 38.2866 22.9057C38.094 22.554 37.8386 22.2902 37.5204 22.1144C37.2022 21.9385 36.8589 21.8506 36.4905 21.8506C36.122 21.8506 35.7787 21.9385 35.4605 22.1144C35.1507 22.2902 34.9037 22.554 34.7195 22.9057C34.5353 23.249 34.4432 23.6718 34.4432 24.1742C34.4432 24.9194 34.6316 25.4972 35.0084 25.9075C35.3936 26.3094 35.875 26.5104 36.4528 26.5104ZM42.4998 21.7376C42.7426 21.4194 43.0733 21.1514 43.492 20.9337C43.9107 20.716 44.3838 20.6072 44.9113 20.6072C45.5142 20.6072 46.0626 20.7579 46.5567 21.0593C47.0591 21.3524 47.4526 21.7669 47.7373 22.3028C48.022 22.8387 48.1643 23.4541 48.1643 24.1491C48.1643 24.8441 48.022 25.4679 47.7373 26.0205C47.4526 26.5648 47.0591 26.9919 46.5567 27.3017C46.0626 27.6031 45.5142 27.7538 44.9113 27.7538C44.3838 27.7538 43.9149 27.6492 43.5046 27.4398C43.0943 27.2221 42.7593 26.9542 42.4998 26.636V30.9315H41.0679V20.7202H42.4998V21.7376ZM46.7074 24.1491C46.7074 23.6718 46.6069 23.2615 46.4059 22.9182C46.2134 22.5665 45.9538 22.3028 45.6272 22.1269C45.309 21.9427 44.9657 21.8506 44.5973 21.8506C44.2372 21.8506 43.8939 21.9427 43.5674 22.1269C43.2492 22.3111 42.9896 22.5791 42.7886 22.9308C42.5961 23.2825 42.4998 23.6969 42.4998 24.1742C42.4998 24.6515 42.5961 25.0702 42.7886 25.4302C42.9896 25.7819 43.2492 26.0499 43.5674 26.2341C43.8939 26.4183 44.2372 26.5104 44.5973 26.5104C44.9657 26.5104 45.309 26.4183 45.6272 26.2341C45.9538 26.0415 46.2134 25.7652 46.4059 25.4051C46.6069 25.045 46.7074 24.6264 46.7074 24.1491ZM58.3254 20.7202V27.6408H56.8936V26.8244C56.6675 27.1091 56.3702 27.3352 56.0018 27.5026C55.6418 27.6617 55.2566 27.7413 54.8463 27.7413C54.302 27.7413 53.8122 27.6282 53.3768 27.4022C52.9497 27.1761 52.6106 26.8411 52.3594 26.3973C52.1166 25.9536 51.9952 25.4177 51.9952 24.7897V20.7202H53.4144V24.5761C53.4144 25.1958 53.5694 25.6731 53.8792 26.008C54.189 26.3345 54.6118 26.4978 55.1477 26.4978C55.6836 26.4978 56.1065 26.3345 56.4163 26.008C56.7345 25.6731 56.8936 25.1958 56.8936 24.5761V20.7202H58.3254ZM61.254 21.7376C61.4968 21.4194 61.8276 21.1514 62.2462 20.9337C62.6649 20.716 63.138 20.6072 63.6655 20.6072C64.2684 20.6072 64.8168 20.7579 65.3109 21.0593C65.8133 21.3524 66.2068 21.7669 66.4915 22.3028C66.7762 22.8387 66.9186 23.4541 66.9186 24.1491C66.9186 24.8441 66.7762 25.4679 66.4915 26.0205C66.2068 26.5648 65.8133 26.9919 65.3109 27.3017C64.8168 27.6031 64.2684 27.7538 63.6655 27.7538C63.138 27.7538 62.6691 27.6492 62.2588 27.4398C61.8485 27.2221 61.5136 26.9542 61.254 26.636V30.9315H59.8221V20.7202H61.254V21.7376ZM65.4616 24.1491C65.4616 23.6718 65.3611 23.2615 65.1602 22.9182C64.9676 22.5665 64.708 22.3028 64.3814 22.1269C64.0632 21.9427 63.7199 21.8506 63.3515 21.8506C62.9914 21.8506 62.6481 21.9427 62.3216 22.1269C62.0034 22.3111 61.7438 22.5791 61.5429 22.9308C61.3503 23.2825 61.254 23.6969 61.254 24.1742C61.254 24.6515 61.3503 25.0702 61.5429 25.4302C61.7438 25.7819 62.0034 26.0499 62.3216 26.2341C62.6481 26.4183 62.9914 26.5104 63.3515 26.5104C63.7199 26.5104 64.0632 26.4183 64.3814 26.2341C64.708 26.0415 64.9676 25.7652 65.1602 25.4051C65.3611 25.045 65.4616 24.6264 65.4616 24.1491Z" fill="white"/>
<path d="M80.6829 19.8964L84.5549 24.0208L80.6829 28.1453L82.3461 29.9173L87.8799 24.0208L82.3461 18.1243L80.6829 19.8964Z" fill="white"/>
<path d="M75.196 19.8964L79.0681 24.0208L75.196 28.1453L76.8593 29.9173L82.3931 24.0208L76.8593 18.1243L75.196 19.8964Z" fill="white"/>
<defs>
<filter id="filter0_d_5_1364" x="0" y="0" width="116" height="56" filterUnits="userSpaceOnUse" color-interpolation-filters="sRGB">
<feFlood flood-opacity="0" result="BackgroundImageFix"/>
<feColorMatrix in="SourceAlpha" type="matrix" values="0 0 0 0 0 0 0 0 0 0 0 0 0 0 0 0 0 0 127 0" result="hardAlpha"/>
<feOffset dy="4"/>
<feGaussianBlur stdDeviation="5.5"/>
<feComposite in2="hardAlpha" operator="out"/>
<feColorMatrix type="matrix" values="0 0 0 0 0.162031 0 0 0 0 0.238106 0 0 0 0 0.6375 0 0 0 0.13 0"/>
<feBlend mode="normal" in2="BackgroundImageFix" result="effect1_dropShadow_5_1364"/>
<feBlend mode="normal" in="SourceGraphic" in2="effect1_dropShadow_5_1364" result="shape"/>
</filter>
</defs>
</svg>
