<svg width="98" height="22" viewBox="0 0 98 22" fill="none" xmlns="http://www.w3.org/2000/svg">
<path d="M1.632 18V12.072H0.24V10.296H1.632V8.568H0.24V6.792H1.632V0.863999H5.4L7.272 6.792H9.456V0.863999H12.12V6.792H13.488V8.568H12.12V10.296H13.488V12.072H12.12V18H8.328L6.408 12.072H4.296V18H1.632ZM4.296 10.296H5.88L5.352 8.568H4.248L4.296 10.296ZM9.528 14.256H9.648L9.552 12.072H8.904L9.528 14.256ZM4.2 6.792H4.872L4.176 4.488H4.08L4.2 6.792ZM8.4 10.296H9.504L9.456 8.568H7.848L8.4 10.296ZM31.1584 3.408H23.3824V7.512C23.7184 7.096 24.1984 6.76 24.8224 6.504C25.4464 6.232 26.1104 6.096 26.8144 6.096C28.0944 6.096 29.1424 6.376 29.9584 6.936C30.7744 7.496 31.3664 8.216 31.7344 9.096C32.1024 9.96 32.2864 10.888 32.2864 11.88C32.2864 13.72 31.7584 15.2 30.7024 16.32C29.6624 17.44 28.1744 18 26.2384 18C24.4144 18 22.9584 17.544 21.8704 16.632C20.7824 15.72 20.1664 14.528 20.0224 13.056H23.2864C23.4304 13.696 23.7504 14.208 24.2464 14.592C24.7584 14.976 25.4064 15.168 26.1904 15.168C27.1344 15.168 27.8464 14.872 28.3264 14.28C28.8064 13.688 29.0464 12.904 29.0464 11.928C29.0464 10.936 28.7984 10.184 28.3024 9.672C27.8224 9.144 27.1104 8.88 26.1664 8.88C25.4944 8.88 24.9344 9.048 24.4864 9.384C24.0384 9.72 23.7184 10.168 23.5264 10.728H20.3104V0.456H31.1584V3.408ZM34.1803 9.024C34.1803 6.256 34.6763 4.088 35.6683 2.52C36.6763 0.951999 38.3403 0.167999 40.6603 0.167999C42.9803 0.167999 44.6363 0.951999 45.6283 2.52C46.6363 4.088 47.1403 6.256 47.1403 9.024C47.1403 11.808 46.6363 13.992 45.6283 15.576C44.6363 17.16 42.9803 17.952 40.6603 17.952C38.3403 17.952 36.6763 17.16 35.6683 15.576C34.6763 13.992 34.1803 11.808 34.1803 9.024ZM43.8283 9.024C43.8283 7.84 43.7483 6.848 43.5883 6.048C43.4443 5.232 43.1403 4.568 42.6763 4.056C42.2283 3.544 41.5563 3.288 40.6603 3.288C39.7643 3.288 39.0843 3.544 38.6203 4.056C38.1723 4.568 37.8683 5.232 37.7083 6.048C37.5643 6.848 37.4923 7.84 37.4923 9.024C37.4923 10.24 37.5643 11.264 37.7083 12.096C37.8523 12.912 38.1563 13.576 38.6203 14.088C39.0843 14.584 39.7643 14.832 40.6603 14.832C41.5563 14.832 42.2363 14.584 42.7003 14.088C43.1643 13.576 43.4683 12.912 43.6123 12.096C43.7563 11.264 43.8283 10.24 43.8283 9.024ZM53.0886 14.472L50.2806 21.216H48.1206L49.6806 14.472H53.0886ZM54.463 9.024C54.463 6.256 54.959 4.088 55.951 2.52C56.959 0.951999 58.623 0.167999 60.943 0.167999C63.263 0.167999 64.919 0.951999 65.911 2.52C66.919 4.088 67.423 6.256 67.423 9.024C67.423 11.808 66.919 13.992 65.911 15.576C64.919 17.16 63.263 17.952 60.943 17.952C58.623 17.952 56.959 17.16 55.951 15.576C54.959 13.992 54.463 11.808 54.463 9.024ZM64.111 9.024C64.111 7.84 64.031 6.848 63.871 6.048C63.727 5.232 63.423 4.568 62.959 4.056C62.511 3.544 61.839 3.288 60.943 3.288C60.047 3.288 59.367 3.544 58.903 4.056C58.455 4.568 58.151 5.232 57.991 6.048C57.847 6.848 57.775 7.84 57.775 9.024C57.775 10.24 57.847 11.264 57.991 12.096C58.135 12.912 58.439 13.576 58.903 14.088C59.367 14.584 60.047 14.832 60.943 14.832C61.839 14.832 62.519 14.584 62.983 14.088C63.447 13.576 63.751 12.912 63.895 12.096C64.039 11.264 64.111 10.24 64.111 9.024ZM69.3152 9.024C69.3152 6.256 69.8112 4.088 70.8032 2.52C71.8112 0.951999 73.4752 0.167999 75.7952 0.167999C78.1152 0.167999 79.7712 0.951999 80.7632 2.52C81.7712 4.088 82.2752 6.256 82.2752 9.024C82.2752 11.808 81.7712 13.992 80.7632 15.576C79.7712 17.16 78.1152 17.952 75.7952 17.952C73.4752 17.952 71.8112 17.16 70.8032 15.576C69.8112 13.992 69.3152 11.808 69.3152 9.024ZM78.9632 9.024C78.9632 7.84 78.8832 6.848 78.7232 6.048C78.5792 5.232 78.2752 4.568 77.8112 4.056C77.3632 3.544 76.6912 3.288 75.7952 3.288C74.8992 3.288 74.2192 3.544 73.7552 4.056C73.3072 4.568 73.0032 5.232 72.8432 6.048C72.6992 6.848 72.6272 7.84 72.6272 9.024C72.6272 10.24 72.6992 11.264 72.8432 12.096C72.9872 12.912 73.2912 13.576 73.7552 14.088C74.2192 14.584 74.8992 14.832 75.7952 14.832C76.6912 14.832 77.3712 14.584 77.8352 14.088C78.2992 13.576 78.6032 12.912 78.7472 12.096C78.8912 11.264 78.9632 10.24 78.9632 9.024ZM84.1675 9.024C84.1675 6.256 84.6635 4.088 85.6555 2.52C86.6635 0.951999 88.3275 0.167999 90.6475 0.167999C92.9675 0.167999 94.6235 0.951999 95.6155 2.52C96.6235 4.088 97.1275 6.256 97.1275 9.024C97.1275 11.808 96.6235 13.992 95.6155 15.576C94.6235 17.16 92.9675 17.952 90.6475 17.952C88.3275 17.952 86.6635 17.16 85.6555 15.576C84.6635 13.992 84.1675 11.808 84.1675 9.024ZM93.8155 9.024C93.8155 7.84 93.7355 6.848 93.5755 6.048C93.4315 5.232 93.1275 4.568 92.6635 4.056C92.2155 3.544 91.5435 3.288 90.6475 3.288C89.7515 3.288 89.0715 3.544 88.6075 4.056C88.1595 4.568 87.8555 5.232 87.6955 6.048C87.5515 6.848 87.4795 7.84 87.4795 9.024C87.4795 10.24 87.5515 11.264 87.6955 12.096C87.8395 12.912 88.1435 13.576 88.6075 14.088C89.0715 14.584 89.7515 14.832 90.6475 14.832C91.5435 14.832 92.2235 14.584 92.6875 14.088C93.1515 13.576 93.4555 12.912 93.5995 12.096C93.7435 11.264 93.8155 10.24 93.8155 9.024Z" fill="#1F1F1F"/>
</svg>
